<mxfile host="app.diagrams.net" agent="Mozilla/5.0 (Windows NT 10.0; Win64; x64) AppleWebKit/537.36 (KHTML, like Gecko) Chrome/131.0.0.0 Safari/537.36 Edg/131.0.0.0" version="25.0.3">
  <diagram id="C5RBs43oDa-KdzZeNtuy" name="Page-1">
    <mxGraphModel dx="1425" dy="794" grid="1" gridSize="10" guides="1" tooltips="1" connect="1" arrows="1" fold="1" page="1" pageScale="1" pageWidth="827" pageHeight="1169" math="0" shadow="0">
      <root>
        <mxCell id="WIyWlLk6GJQsqaUBKTNV-0" />
        <mxCell id="WIyWlLk6GJQsqaUBKTNV-1" parent="WIyWlLk6GJQsqaUBKTNV-0" />
        <mxCell id="UJWEMMK_w_HJZwBY1Dhb-0" value="&lt;b&gt;DVS_NWSec_NGA_NIGHLTY Testsuite&lt;/b&gt;&amp;nbsp;&lt;div&gt;working principle and logic&amp;nbsp;&lt;/div&gt;" style="text;strokeColor=none;align=center;fillColor=none;html=1;verticalAlign=middle;whiteSpace=wrap;rounded=0;" vertex="1" parent="WIyWlLk6GJQsqaUBKTNV-1">
          <mxGeometry x="19" y="30" width="760" height="30" as="geometry" />
        </mxCell>
        <mxCell id="UJWEMMK_w_HJZwBY1Dhb-6" value="Legend" style="swimlane;whiteSpace=wrap;html=1;" vertex="1" parent="WIyWlLk6GJQsqaUBKTNV-1">
          <mxGeometry x="520" y="70" width="300" height="80" as="geometry" />
        </mxCell>
        <mxCell id="UJWEMMK_w_HJZwBY1Dhb-4" value="Test" style="shape=hexagon;perimeter=hexagonPerimeter2;whiteSpace=wrap;html=1;fixedSize=1;fillColor=#dae8fc;strokeColor=#6c8ebf;" vertex="1" parent="UJWEMMK_w_HJZwBY1Dhb-6">
          <mxGeometry x="169" y="30" width="120" height="40" as="geometry" />
        </mxCell>
        <mxCell id="UJWEMMK_w_HJZwBY1Dhb-1" value="Pre/Post Test" style="rounded=0;whiteSpace=wrap;html=1;fillColor=#d5e8d4;strokeColor=#82b366;" vertex="1" parent="UJWEMMK_w_HJZwBY1Dhb-6">
          <mxGeometry x="10" y="30" width="120" height="40" as="geometry" />
        </mxCell>
        <mxCell id="UJWEMMK_w_HJZwBY1Dhb-7" value="ABTSiteSetup" style="rounded=0;whiteSpace=wrap;html=1;fillColor=#d5e8d4;strokeColor=#82b366;" vertex="1" parent="WIyWlLk6GJQsqaUBKTNV-1">
          <mxGeometry x="80" y="160" width="120" height="40" as="geometry" />
        </mxCell>
        <mxCell id="UJWEMMK_w_HJZwBY1Dhb-9" style="edgeStyle=orthogonalEdgeStyle;rounded=0;orthogonalLoop=1;jettySize=auto;html=1;exitX=0.5;exitY=1;exitDx=0;exitDy=0;entryX=0.403;entryY=0.081;entryDx=0;entryDy=0;entryPerimeter=0;" edge="1" parent="WIyWlLk6GJQsqaUBKTNV-1" source="UJWEMMK_w_HJZwBY1Dhb-7" target="UJWEMMK_w_HJZwBY1Dhb-8">
          <mxGeometry relative="1" as="geometry" />
        </mxCell>
        <mxCell id="UJWEMMK_w_HJZwBY1Dhb-10" value="Setup ABT site main settings before engineering." style="text;html=1;align=center;verticalAlign=middle;whiteSpace=wrap;rounded=0;" vertex="1" parent="WIyWlLk6GJQsqaUBKTNV-1">
          <mxGeometry x="220" y="160" width="200" height="30" as="geometry" />
        </mxCell>
        <mxCell id="UJWEMMK_w_HJZwBY1Dhb-13" value="ProjectEngineeringTest" style="rounded=0;whiteSpace=wrap;html=1;fillColor=#d5e8d4;strokeColor=#82b366;" vertex="1" parent="WIyWlLk6GJQsqaUBKTNV-1">
          <mxGeometry x="80" y="220" width="150" height="40" as="geometry" />
        </mxCell>
        <mxCell id="UJWEMMK_w_HJZwBY1Dhb-15" value="ProductName=&quot;NGA&quot; Devices=&quot;PXC&quot; Transports=&quot;Ethernet&quot; Protocol=&quot;IP&quot; Addressings=&quot;StaticIP&quot;" style="swimlane;whiteSpace=wrap;html=1;" vertex="1" parent="WIyWlLk6GJQsqaUBKTNV-1">
          <mxGeometry x="19" y="280" width="790" height="760" as="geometry" />
        </mxCell>
        <mxCell id="UJWEMMK_w_HJZwBY1Dhb-26" style="edgeStyle=orthogonalEdgeStyle;rounded=0;orthogonalLoop=1;jettySize=auto;html=1;exitX=0.5;exitY=1;exitDx=0;exitDy=0;" edge="1" parent="UJWEMMK_w_HJZwBY1Dhb-15" source="UJWEMMK_w_HJZwBY1Dhb-8" target="UJWEMMK_w_HJZwBY1Dhb-17">
          <mxGeometry relative="1" as="geometry" />
        </mxCell>
        <mxCell id="UJWEMMK_w_HJZwBY1Dhb-8" value="SetupABTSiteForTestRun" style="rounded=0;whiteSpace=wrap;html=1;fillColor=#d5e8d4;strokeColor=#82b366;" vertex="1" parent="UJWEMMK_w_HJZwBY1Dhb-15">
          <mxGeometry x="60" y="40" width="150" height="40" as="geometry" />
        </mxCell>
        <mxCell id="UJWEMMK_w_HJZwBY1Dhb-16" value="Prepare Project for testing by opening it and expanding the project tree&amp;nbsp;&lt;div&gt;Note: After opening the project it will connect to network based on &lt;b&gt;Transport , Protocol, Addressing,&lt;/b&gt;&lt;/div&gt;" style="text;html=1;align=center;verticalAlign=middle;whiteSpace=wrap;rounded=0;" vertex="1" parent="UJWEMMK_w_HJZwBY1Dhb-15">
          <mxGeometry x="230" y="40" width="465" height="40" as="geometry" />
        </mxCell>
        <mxCell id="UJWEMMK_w_HJZwBY1Dhb-18" value="&lt;font style=&quot;font-size: 11px;&quot;&gt;ProductName=&quot;NGA&quot; Devices=&quot;PXC4.E16-2 PXC5.E003 PXC5.E24 PXC7.E400X&quot; Transports=&quot;Ethernet&quot; Protocol=&quot;IP&quot; Addressings=&quot;StaticIP&quot;&lt;/font&gt;" style="swimlane;whiteSpace=wrap;html=1;" vertex="1" parent="UJWEMMK_w_HJZwBY1Dhb-15">
          <mxGeometry x="10" y="105" width="770" height="555" as="geometry" />
        </mxCell>
        <mxCell id="UJWEMMK_w_HJZwBY1Dhb-24" style="edgeStyle=orthogonalEdgeStyle;rounded=0;orthogonalLoop=1;jettySize=auto;html=1;exitX=0.5;exitY=1;exitDx=0;exitDy=0;entryX=0.5;entryY=0;entryDx=0;entryDy=0;" edge="1" parent="UJWEMMK_w_HJZwBY1Dhb-18" source="UJWEMMK_w_HJZwBY1Dhb-17" target="UJWEMMK_w_HJZwBY1Dhb-20">
          <mxGeometry relative="1" as="geometry" />
        </mxCell>
        <mxCell id="UJWEMMK_w_HJZwBY1Dhb-17" value="ClearDevice" style="shape=hexagon;perimeter=hexagonPerimeter2;whiteSpace=wrap;html=1;fixedSize=1;fillColor=#dae8fc;strokeColor=#6c8ebf;" vertex="1" parent="UJWEMMK_w_HJZwBY1Dhb-18">
          <mxGeometry x="50" y="50" width="150" height="40" as="geometry" />
        </mxCell>
        <mxCell id="UJWEMMK_w_HJZwBY1Dhb-19" value="Each test will be executed for each device mentioned in &lt;b&gt;Devices=&lt;/b&gt;" style="text;html=1;align=center;verticalAlign=middle;whiteSpace=wrap;rounded=0;" vertex="1" parent="UJWEMMK_w_HJZwBY1Dhb-18">
          <mxGeometry x="570" y="35" width="190" height="30" as="geometry" />
        </mxCell>
        <mxCell id="UJWEMMK_w_HJZwBY1Dhb-25" style="edgeStyle=orthogonalEdgeStyle;rounded=0;orthogonalLoop=1;jettySize=auto;html=1;exitX=0.5;exitY=1;exitDx=0;exitDy=0;" edge="1" parent="UJWEMMK_w_HJZwBY1Dhb-18" source="UJWEMMK_w_HJZwBY1Dhb-20" target="UJWEMMK_w_HJZwBY1Dhb-21">
          <mxGeometry relative="1" as="geometry" />
        </mxCell>
        <mxCell id="UJWEMMK_w_HJZwBY1Dhb-20" value="UpgradeDeviceFirmware" style="shape=hexagon;perimeter=hexagonPerimeter2;whiteSpace=wrap;html=1;fixedSize=1;fillColor=#dae8fc;strokeColor=#6c8ebf;" vertex="1" parent="UJWEMMK_w_HJZwBY1Dhb-18">
          <mxGeometry x="50" y="115" width="150" height="40" as="geometry" />
        </mxCell>
        <mxCell id="UJWEMMK_w_HJZwBY1Dhb-27" style="edgeStyle=orthogonalEdgeStyle;rounded=0;orthogonalLoop=1;jettySize=auto;html=1;exitX=0.5;exitY=1;exitDx=0;exitDy=0;entryX=0.5;entryY=0;entryDx=0;entryDy=0;" edge="1" parent="UJWEMMK_w_HJZwBY1Dhb-18" source="UJWEMMK_w_HJZwBY1Dhb-21" target="UJWEMMK_w_HJZwBY1Dhb-22">
          <mxGeometry relative="1" as="geometry" />
        </mxCell>
        <mxCell id="UJWEMMK_w_HJZwBY1Dhb-21" value="ConfigureDevice" style="shape=hexagon;perimeter=hexagonPerimeter2;whiteSpace=wrap;html=1;fixedSize=1;fillColor=#dae8fc;strokeColor=#6c8ebf;" vertex="1" parent="UJWEMMK_w_HJZwBY1Dhb-18">
          <mxGeometry x="50" y="177.5" width="150" height="40" as="geometry" />
        </mxCell>
        <mxCell id="UJWEMMK_w_HJZwBY1Dhb-28" style="edgeStyle=orthogonalEdgeStyle;rounded=0;orthogonalLoop=1;jettySize=auto;html=1;exitX=0.5;exitY=1;exitDx=0;exitDy=0;entryX=0.5;entryY=0;entryDx=0;entryDy=0;" edge="1" parent="UJWEMMK_w_HJZwBY1Dhb-18" source="UJWEMMK_w_HJZwBY1Dhb-22" target="UJWEMMK_w_HJZwBY1Dhb-23">
          <mxGeometry relative="1" as="geometry" />
        </mxCell>
        <mxCell id="UJWEMMK_w_HJZwBY1Dhb-22" value="DownloadToDevice" style="shape=hexagon;perimeter=hexagonPerimeter2;whiteSpace=wrap;html=1;fixedSize=1;fillColor=#dae8fc;strokeColor=#6c8ebf;" vertex="1" parent="UJWEMMK_w_HJZwBY1Dhb-18">
          <mxGeometry x="50" y="235" width="150" height="40" as="geometry" />
        </mxCell>
        <mxCell id="UJWEMMK_w_HJZwBY1Dhb-34" style="edgeStyle=orthogonalEdgeStyle;rounded=0;orthogonalLoop=1;jettySize=auto;html=1;exitX=0.5;exitY=1;exitDx=0;exitDy=0;entryX=0.5;entryY=0;entryDx=0;entryDy=0;" edge="1" parent="UJWEMMK_w_HJZwBY1Dhb-18" source="UJWEMMK_w_HJZwBY1Dhb-23" target="UJWEMMK_w_HJZwBY1Dhb-30">
          <mxGeometry relative="1" as="geometry" />
        </mxCell>
        <mxCell id="UJWEMMK_w_HJZwBY1Dhb-23" value="AddAccessControlProfile" style="shape=hexagon;perimeter=hexagonPerimeter2;whiteSpace=wrap;html=1;fixedSize=1;fillColor=#dae8fc;strokeColor=#6c8ebf;" vertex="1" parent="UJWEMMK_w_HJZwBY1Dhb-18">
          <mxGeometry x="50" y="295" width="150" height="40" as="geometry" />
        </mxCell>
        <mxCell id="UJWEMMK_w_HJZwBY1Dhb-35" style="edgeStyle=orthogonalEdgeStyle;rounded=0;orthogonalLoop=1;jettySize=auto;html=1;exitX=0.5;exitY=1;exitDx=0;exitDy=0;entryX=0.5;entryY=0;entryDx=0;entryDy=0;" edge="1" parent="UJWEMMK_w_HJZwBY1Dhb-18" source="UJWEMMK_w_HJZwBY1Dhb-30" target="UJWEMMK_w_HJZwBY1Dhb-29">
          <mxGeometry relative="1" as="geometry" />
        </mxCell>
        <mxCell id="UJWEMMK_w_HJZwBY1Dhb-30" value="UploadOnlineChange" style="shape=hexagon;perimeter=hexagonPerimeter2;whiteSpace=wrap;html=1;fixedSize=1;fillColor=#dae8fc;strokeColor=#6c8ebf;" vertex="1" parent="UJWEMMK_w_HJZwBY1Dhb-18">
          <mxGeometry x="50" y="355" width="150" height="40" as="geometry" />
        </mxCell>
        <mxCell id="UJWEMMK_w_HJZwBY1Dhb-36" style="edgeStyle=orthogonalEdgeStyle;rounded=0;orthogonalLoop=1;jettySize=auto;html=1;exitX=0.5;exitY=1;exitDx=0;exitDy=0;entryX=0.5;entryY=0;entryDx=0;entryDy=0;" edge="1" parent="UJWEMMK_w_HJZwBY1Dhb-18" source="UJWEMMK_w_HJZwBY1Dhb-29" target="UJWEMMK_w_HJZwBY1Dhb-31">
          <mxGeometry relative="1" as="geometry" />
        </mxCell>
        <mxCell id="UJWEMMK_w_HJZwBY1Dhb-29" value="ClearApplication" style="shape=hexagon;perimeter=hexagonPerimeter2;whiteSpace=wrap;html=1;fixedSize=1;fillColor=#dae8fc;strokeColor=#6c8ebf;" vertex="1" parent="UJWEMMK_w_HJZwBY1Dhb-18">
          <mxGeometry x="50" y="415" width="150" height="40" as="geometry" />
        </mxCell>
        <mxCell id="UJWEMMK_w_HJZwBY1Dhb-31" value="ClearDevice" style="shape=hexagon;perimeter=hexagonPerimeter2;whiteSpace=wrap;html=1;fixedSize=1;fillColor=#dae8fc;strokeColor=#6c8ebf;" vertex="1" parent="UJWEMMK_w_HJZwBY1Dhb-18">
          <mxGeometry x="50" y="475" width="150" height="40" as="geometry" />
        </mxCell>
        <mxCell id="UJWEMMK_w_HJZwBY1Dhb-38" value="We must ensure that device is cleared before testing" style="text;html=1;align=center;verticalAlign=middle;whiteSpace=wrap;rounded=0;" vertex="1" parent="UJWEMMK_w_HJZwBY1Dhb-18">
          <mxGeometry x="211" y="55" width="290" height="30" as="geometry" />
        </mxCell>
        <mxCell id="UJWEMMK_w_HJZwBY1Dhb-39" value="Upgrade Device firmware is done to unconfigured device to ensure FW downgrading and upgrading (This step will not read any BACnet properties)" style="text;html=1;align=center;verticalAlign=middle;whiteSpace=wrap;rounded=0;" vertex="1" parent="UJWEMMK_w_HJZwBY1Dhb-18">
          <mxGeometry x="211" y="120" width="460" height="30" as="geometry" />
        </mxCell>
        <mxCell id="UJWEMMK_w_HJZwBY1Dhb-41" value="Configure Device before performing Full load.&amp;nbsp;" style="text;html=1;align=center;verticalAlign=middle;whiteSpace=wrap;rounded=0;" vertex="1" parent="UJWEMMK_w_HJZwBY1Dhb-18">
          <mxGeometry x="200" y="182.5" width="270" height="30" as="geometry" />
        </mxCell>
        <mxCell id="UJWEMMK_w_HJZwBY1Dhb-42" value="Perform Full load.&amp;nbsp;" style="text;html=1;align=center;verticalAlign=middle;whiteSpace=wrap;rounded=0;" vertex="1" parent="UJWEMMK_w_HJZwBY1Dhb-18">
          <mxGeometry x="200" y="240" width="130" height="30" as="geometry" />
        </mxCell>
        <mxCell id="UJWEMMK_w_HJZwBY1Dhb-43" value="Add different access profile&amp;nbsp; and login from web interface" style="text;html=1;align=center;verticalAlign=middle;whiteSpace=wrap;rounded=0;" vertex="1" parent="UJWEMMK_w_HJZwBY1Dhb-18">
          <mxGeometry x="200" y="300" width="330" height="30" as="geometry" />
        </mxCell>
        <mxCell id="UJWEMMK_w_HJZwBY1Dhb-44" value="Make changes from web interface to device upload and verify if changes are present in ABT sitre" style="text;html=1;align=center;verticalAlign=middle;whiteSpace=wrap;rounded=0;" vertex="1" parent="UJWEMMK_w_HJZwBY1Dhb-18">
          <mxGeometry x="210.5" y="360" width="419.5" height="30" as="geometry" />
        </mxCell>
        <mxCell id="UJWEMMK_w_HJZwBY1Dhb-45" value="Clear application from ABT site" style="text;html=1;align=center;verticalAlign=middle;whiteSpace=wrap;rounded=0;" vertex="1" parent="UJWEMMK_w_HJZwBY1Dhb-18">
          <mxGeometry x="211" y="420" width="189" height="30" as="geometry" />
        </mxCell>
        <mxCell id="UJWEMMK_w_HJZwBY1Dhb-46" value="After using device we must Clear it&amp;nbsp;" style="text;html=1;align=center;verticalAlign=middle;whiteSpace=wrap;rounded=0;" vertex="1" parent="UJWEMMK_w_HJZwBY1Dhb-18">
          <mxGeometry x="211" y="480" width="209" height="30" as="geometry" />
        </mxCell>
        <mxCell id="UJWEMMK_w_HJZwBY1Dhb-33" value="CloseABTSite" style="rounded=0;whiteSpace=wrap;html=1;fillColor=#d5e8d4;strokeColor=#82b366;" vertex="1" parent="UJWEMMK_w_HJZwBY1Dhb-15">
          <mxGeometry x="60" y="690" width="150" height="40" as="geometry" />
        </mxCell>
        <mxCell id="UJWEMMK_w_HJZwBY1Dhb-37" style="edgeStyle=orthogonalEdgeStyle;rounded=0;orthogonalLoop=1;jettySize=auto;html=1;exitX=0.5;exitY=1;exitDx=0;exitDy=0;" edge="1" parent="UJWEMMK_w_HJZwBY1Dhb-15" source="UJWEMMK_w_HJZwBY1Dhb-31" target="UJWEMMK_w_HJZwBY1Dhb-33">
          <mxGeometry relative="1" as="geometry" />
        </mxCell>
        <mxCell id="UJWEMMK_w_HJZwBY1Dhb-47" value="Close ABT site&amp;nbsp;" style="text;html=1;align=center;verticalAlign=middle;whiteSpace=wrap;rounded=0;" vertex="1" parent="UJWEMMK_w_HJZwBY1Dhb-15">
          <mxGeometry x="230" y="695" width="130" height="30" as="geometry" />
        </mxCell>
        <mxCell id="UJWEMMK_w_HJZwBY1Dhb-12" value="ProductName=&quot;NGA&quot;&lt;div&gt;Covered devices are mentioned in ns01 TestBed (PXC4.E16-2 / PXC5.E003 / PXC5.E24 / PXC7.E400X)&amp;nbsp;&lt;/div&gt;" style="text;html=1;align=center;verticalAlign=middle;whiteSpace=wrap;rounded=0;" vertex="1" parent="WIyWlLk6GJQsqaUBKTNV-1">
          <mxGeometry x="249" y="220" width="465" height="40" as="geometry" />
        </mxCell>
        <mxCell id="UJWEMMK_w_HJZwBY1Dhb-40" value="&lt;b&gt;Author: metin.hasanov@siemens.com&lt;/b&gt;" style="text;html=1;align=center;verticalAlign=middle;whiteSpace=wrap;rounded=0;" vertex="1" parent="WIyWlLk6GJQsqaUBKTNV-1">
          <mxGeometry x="19" y="70" width="271" height="30" as="geometry" />
        </mxCell>
      </root>
    </mxGraphModel>
  </diagram>
</mxfile>
